<svg width="291" height="213" viewBox="0 0 291 213" fill="none" xmlns="http://www.w3.org/2000/svg">
<g clip-path="url(#clip0_6_664)">
<path d="M-0.392578 27.0143C-0.392578 20.0926 1.9566 13.4544 6.13815 8.56002C10.3197 3.66564 15.9911 0.916016 21.9047 0.916016H267.229C273.637 0.916016 279.783 3.89563 284.314 9.1994C288.846 14.5032 291.391 21.6966 291.391 29.1973V182.468C291.391 199.455 279.626 213.226 265.112 213.226H25.7335C11.3045 213.226 -0.392578 199.535 -0.392578 182.646V27.0143Z" fill="white" stroke="black" stroke-width="2.66421" stroke-linecap="round"/>
<path d="M201.813 77.3739C201.813 40.0179 175.965 9.73357 144.071 9.70801H129.678V43.2342H144.057V43.2427C160 43.2598 172.92 58.5319 172.92 77.3739C172.92 96.2158 160 111.492 144.057 111.509V111.518H129.678V145.044H144.057C144.057 145.044 144.057 145.044 144.06 145.044H144.071C175.965 145.018 201.813 114.734 201.813 77.3739Z" fill="#69207E"/>
<path d="M124.104 145.044V9.70801H94.3388V95.2957L43.7921 9.70801H43.5157H13.75V145.044H43.5157V59.6395L93.9532 145.044H123.719H124.104Z" fill="#003B78"/>
<path d="M29.3875 150.838V153.577H23.0982V172.347H20.1919V153.577H14.0918V150.838H29.3875Z" fill="#003B78"/>
<path d="M50.1581 172.347H36.834V150.842H49.6016V153.522H39.7622V160.061H48.8159V162.681H39.7622V169.697H50.1545V172.347H50.1581Z" fill="#003B78"/>
<path d="M66.3417 172.641C64.8504 172.641 63.5554 172.364 62.4533 171.814C61.3511 171.26 60.4381 170.489 59.7106 169.497C58.9867 168.508 58.4484 167.333 58.0955 165.969C57.7427 164.61 57.5645 163.115 57.5645 161.488C57.5645 159.809 57.7427 158.297 58.0955 156.947C58.4484 155.596 58.9794 154.446 59.6924 153.5C60.4053 152.555 61.3002 151.826 62.3769 151.311C63.4536 150.8 64.7158 150.544 66.1671 150.544C67.2802 150.544 68.2442 150.697 69.059 150.996C69.8774 151.298 70.5794 151.698 71.1687 152.193C71.758 152.691 72.2527 153.262 72.6601 153.909C73.0638 154.557 73.4058 155.226 73.6822 155.929L71.0814 157.04C70.9068 156.585 70.6813 156.133 70.4121 155.682C70.1429 155.226 69.8156 154.817 69.4263 154.459C69.0408 154.097 68.5824 153.807 68.0514 153.586C67.5203 153.364 66.9092 153.253 66.2217 153.253C65.2178 153.253 64.3593 153.449 63.6391 153.845C62.9189 154.242 62.3296 154.795 61.8713 155.511C61.4129 156.227 61.0746 157.092 60.8564 158.105C60.6381 159.124 60.529 160.252 60.529 161.492C60.529 162.723 60.6491 163.856 60.8891 164.892C61.1292 165.927 61.4893 166.821 61.9731 167.571C62.4569 168.321 63.0644 168.9 63.7919 169.314C64.5194 169.727 65.3705 169.935 66.349 169.935C67.0583 169.935 67.684 169.803 68.2296 169.539C68.7752 169.271 69.2554 168.93 69.6701 168.517C70.0811 168.104 70.4339 167.644 70.7249 167.132C71.0159 166.625 71.2524 166.123 71.4379 165.633L74.0023 166.873C73.7004 167.592 73.3403 168.295 72.922 168.985C72.5073 169.676 71.9944 170.293 71.3942 170.834C70.794 171.375 70.0775 171.81 69.2517 172.146C68.4188 172.474 67.4512 172.641 66.3417 172.641Z" fill="#003B78"/>
<path d="M82.252 172.347V150.842H85.1801V159.776H95.2196V150.842H98.0751V172.347H95.2196V162.613H85.1801V172.347H82.252Z" fill="#003B78"/>
<path d="M120.579 172.351L110.121 154.664C110.172 156.082 110.197 157.386 110.197 158.566V172.351H107.582V150.847H111.005L121.601 168.653C121.532 167.06 121.499 165.659 121.499 164.453V150.842H124.1V172.347H120.579V172.351Z" fill="#003B78"/>
<path d="M150.723 161.492C150.723 163.179 150.519 164.708 150.112 166.076C149.701 167.448 149.115 168.619 148.344 169.595C147.573 170.57 146.631 171.32 145.514 171.848C144.398 172.376 143.139 172.641 141.731 172.641C140.24 172.641 138.934 172.364 137.81 171.814C136.686 171.26 135.751 170.489 135.002 169.497C134.253 168.508 133.689 167.333 133.318 165.969C132.943 164.61 132.754 163.115 132.754 161.488C132.754 159.809 132.95 158.297 133.347 156.947C133.743 155.596 134.322 154.446 135.089 153.5C135.853 152.555 136.799 151.826 137.919 151.311C139.039 150.8 140.32 150.544 141.76 150.544C143.201 150.544 144.478 150.804 145.591 151.319C146.707 151.835 147.642 152.572 148.402 153.526C149.159 154.476 149.737 155.626 150.13 156.972C150.527 158.323 150.723 159.826 150.723 161.492ZM147.77 161.492C147.77 160.248 147.639 159.119 147.38 158.105C147.118 157.092 146.736 156.223 146.231 155.511C145.725 154.795 145.1 154.242 144.35 153.845C143.601 153.449 142.739 153.253 141.76 153.253C140.749 153.253 139.869 153.449 139.112 153.845C138.359 154.242 137.73 154.795 137.224 155.511C136.719 156.227 136.34 157.092 136.086 158.105C135.835 159.124 135.708 160.252 135.708 161.492C135.708 162.723 135.838 163.856 136.1 164.892C136.362 165.927 136.744 166.821 137.25 167.571C137.755 168.321 138.381 168.9 139.13 169.314C139.88 169.727 140.745 169.935 141.731 169.935C142.782 169.935 143.692 169.727 144.452 169.301C145.216 168.875 145.842 168.291 146.333 167.541C146.824 166.792 147.187 165.901 147.42 164.87C147.653 163.844 147.77 162.719 147.77 161.492Z" fill="#003B78"/>
<path d="M162.32 150.838V169.637H170.945V172.342H159.389V150.838H162.32Z" fill="#003B78"/>
<path d="M195.963 161.492C195.963 163.179 195.759 164.708 195.352 166.076C194.945 167.448 194.355 168.619 193.584 169.595C192.813 170.57 191.871 171.32 190.754 171.848C189.638 172.376 188.379 172.641 186.971 172.641C185.483 172.641 184.174 172.364 183.05 171.814C181.926 171.26 180.988 170.489 180.238 169.497C179.489 168.508 178.929 167.333 178.55 165.969C178.176 164.61 177.99 163.115 177.99 161.488C177.99 159.809 178.187 158.297 178.583 156.947C178.98 155.596 179.558 154.446 180.326 153.5C181.093 152.555 182.035 151.826 183.155 151.311C184.276 150.8 185.556 150.544 186.997 150.544C188.437 150.544 189.714 150.804 190.831 151.319C191.947 151.835 192.882 152.572 193.639 153.526C194.395 154.476 194.974 155.626 195.37 156.972C195.763 158.323 195.963 159.826 195.963 161.492ZM193.006 161.492C193.006 160.248 192.875 159.119 192.613 158.105C192.351 157.092 191.969 156.223 191.464 155.511C190.958 154.795 190.329 154.242 189.579 153.845C188.83 153.449 187.968 153.253 186.989 153.253C185.978 153.253 185.098 153.449 184.345 153.845C183.592 154.242 182.963 154.795 182.457 155.511C181.951 156.227 181.573 157.092 181.322 158.105C181.071 159.124 180.944 160.252 180.944 161.492C180.944 162.723 181.075 163.856 181.333 164.892C181.595 165.927 181.977 166.821 182.483 167.571C182.988 168.321 183.614 168.9 184.363 169.314C185.112 169.727 185.978 169.935 186.964 169.935C188.015 169.935 188.925 169.727 189.688 169.301C190.449 168.875 191.078 168.291 191.569 167.541C192.06 166.792 192.424 165.901 192.653 164.87C192.889 163.844 193.006 162.719 193.006 161.492Z" fill="#003B78"/>
<path d="M218.775 170.37C218.251 170.817 217.665 171.209 217.018 171.546C216.37 171.878 215.661 172.146 214.897 172.342C214.13 172.538 213.315 172.636 212.445 172.636C210.965 172.636 209.674 172.359 208.582 171.81C207.488 171.256 206.578 170.485 205.854 169.492C205.13 168.504 204.588 167.328 204.232 165.965C203.875 164.606 203.697 163.111 203.697 161.483C203.697 159.805 203.875 158.293 204.228 156.942C204.581 155.592 205.116 154.442 205.832 153.496C206.549 152.55 207.444 151.822 208.524 151.306C209.601 150.795 210.859 150.54 212.3 150.54C213.344 150.54 214.264 150.672 215.061 150.94C215.854 151.208 216.549 151.57 217.145 152.026C217.738 152.486 218.244 153.027 218.662 153.658C219.077 154.288 219.429 154.966 219.717 155.686L217.076 156.793C216.89 156.32 216.661 155.869 216.388 155.439C216.116 155.013 215.785 154.633 215.399 154.305C215.01 153.982 214.562 153.722 214.053 153.53C213.544 153.338 212.962 153.245 212.304 153.245C211.318 153.245 210.47 153.441 209.765 153.837C209.055 154.233 208.473 154.787 208.011 155.502C207.549 156.218 207.207 157.083 206.986 158.097C206.767 159.115 206.658 160.244 206.658 161.483C206.658 162.715 206.782 163.848 207.026 164.883C207.269 165.918 207.633 166.813 208.117 167.563C208.601 168.312 209.204 168.892 209.928 169.305C210.652 169.718 211.496 169.927 212.456 169.927C213.064 169.927 213.62 169.859 214.13 169.718C214.639 169.582 215.101 169.407 215.519 169.194C215.934 168.981 216.305 168.743 216.629 168.478C216.952 168.21 217.225 167.946 217.443 167.678V163.95H212.504V161.39H220.131V168.947C219.746 169.45 219.295 169.923 218.775 170.37Z" fill="#003B78"/>
<path d="M232.043 172.347H229.115V150.842H232.043V172.347Z" fill="#003B78"/>
<path d="M254.949 172.347H241.625V150.842H254.393V153.522H244.553V160.061H253.607V162.681H244.553V169.697H254.946V172.347H254.949Z" fill="#003B78"/>
<path d="M277.251 166.344C277.251 167.26 277.106 168.108 276.815 168.879C276.524 169.654 276.073 170.315 275.462 170.873C274.854 171.431 274.076 171.865 273.141 172.176C272.202 172.487 271.089 172.641 269.802 172.641C267.539 172.641 265.782 172.168 264.542 171.213C263.298 170.263 262.501 168.883 262.148 167.081L264.953 166.429C265.062 166.962 265.229 167.448 265.459 167.886C265.684 168.325 265.997 168.704 266.386 169.028C266.779 169.348 267.259 169.595 267.834 169.765C268.409 169.94 269.092 170.025 269.893 170.025C270.577 170.025 271.195 169.957 271.748 169.82C272.304 169.68 272.777 169.471 273.174 169.181C273.57 168.896 273.876 168.534 274.09 168.087C274.305 167.644 274.41 167.111 274.41 166.489C274.41 165.799 274.261 165.237 273.963 164.802C273.665 164.368 273.268 164.01 272.774 163.729C272.282 163.447 271.722 163.213 271.093 163.03C270.467 162.851 269.827 162.664 269.18 162.476C268.681 162.336 268.187 162.195 267.688 162.05C267.194 161.901 266.713 161.722 266.255 161.509C265.797 161.3 265.368 161.049 264.975 160.764C264.578 160.478 264.236 160.125 263.945 159.716C263.654 159.298 263.425 158.817 263.258 158.263C263.091 157.714 263.007 157.066 263.007 156.325C263.007 155.298 263.181 154.421 263.523 153.692C263.869 152.959 264.349 152.363 264.964 151.894C265.579 151.426 266.302 151.085 267.143 150.868C267.979 150.65 268.885 150.544 269.864 150.544C270.984 150.544 271.941 150.65 272.73 150.863C273.523 151.076 274.185 151.392 274.723 151.818C275.262 152.239 275.694 152.768 276.025 153.402C276.353 154.033 276.615 154.77 276.808 155.609L273.967 156.112C273.865 155.601 273.708 155.153 273.497 154.774C273.286 154.395 273.014 154.075 272.683 153.82C272.352 153.564 271.944 153.373 271.471 153.245C270.995 153.117 270.438 153.053 269.798 153.053C269.049 153.053 268.419 153.134 267.918 153.296C267.412 153.458 267.004 153.684 266.699 153.969C266.39 154.254 266.171 154.587 266.041 154.966C265.91 155.345 265.844 155.754 265.844 156.188C265.844 156.789 265.964 157.283 266.212 157.675C266.455 158.067 266.786 158.391 267.208 158.651C267.63 158.911 268.121 159.132 268.685 159.315C269.249 159.498 269.856 159.686 270.504 159.873C271.042 160.022 271.588 160.172 272.133 160.333C272.679 160.491 273.199 160.674 273.697 160.887C274.196 161.1 274.658 161.356 275.094 161.65C275.527 161.944 275.905 162.31 276.226 162.745C276.546 163.179 276.797 163.686 276.979 164.274C277.16 164.853 277.251 165.548 277.251 166.344Z" fill="#003B78"/>
<path d="M190.588 126.219C200.966 137.87 215.043 145.044 230.557 145.044C249.737 145.044 266.728 134.088 277.24 117.239L250.425 102.146C245.245 107.948 238.257 111.514 230.557 111.514C219.43 111.514 209.779 104.08 204.952 93.1873C202.621 105.678 197.583 116.984 190.588 126.219ZM250.425 52.6066L277.24 37.5134C266.732 20.6608 249.741 9.7041 230.557 9.7041C215.043 9.7041 200.969 16.8779 190.588 28.5333C197.583 37.769 202.617 49.0708 204.952 61.5653C209.779 50.6768 219.43 43.2388 230.557 43.2388C238.257 43.2431 245.245 46.8087 250.425 52.6066Z" fill="#D11243"/>
<path d="M92.2227 198.963L97.0278 182.336H99.0612L103.866 198.963H101.942L100.6 193.894H95.4273L94.0632 198.963H92.2227ZM96.5513 189.664L95.8783 192.198H100.141L99.4686 189.664C99.2103 188.735 98.9629 187.811 98.7338 186.886C98.5046 185.966 98.2718 185.02 98.0427 184.057H97.9554C97.7371 185.02 97.5152 185.962 97.2824 186.886C97.0569 187.806 96.8095 188.731 96.5513 189.664Z" fill="#58595B"/>
<path d="M110.201 198.963V182.336H112.064L117.192 192.782L118.727 196.228H118.815C118.771 195.385 118.724 194.507 118.673 193.604C118.622 192.701 118.597 191.806 118.597 190.929V182.336H120.306V198.963H118.444L113.293 188.492L111.758 185.071H111.671C111.729 185.915 111.783 186.775 111.834 187.644C111.885 188.513 111.911 189.387 111.911 190.269V198.963H110.201Z" fill="#58595B"/>
<path d="M128.128 199.27C127.477 199.27 126.863 199.125 126.277 198.84C125.691 198.55 125.175 198.132 124.727 197.583C124.28 197.033 123.923 196.356 123.658 195.555C123.392 194.754 123.258 193.847 123.258 192.829C123.258 191.798 123.392 190.882 123.658 190.077C123.923 189.276 124.284 188.594 124.727 188.036C125.175 187.478 125.691 187.057 126.277 186.771C126.863 186.486 127.477 186.341 128.128 186.341C128.78 186.341 129.394 186.486 129.98 186.771C130.566 187.061 131.078 187.478 131.529 188.036C131.977 188.594 132.333 189.276 132.599 190.077C132.864 190.882 132.999 191.798 132.999 192.829C132.999 193.843 132.864 194.75 132.599 195.555C132.333 196.36 131.973 197.033 131.529 197.583C131.082 198.132 130.566 198.55 129.98 198.84C129.394 199.125 128.78 199.27 128.128 199.27ZM128.128 197.545C128.576 197.545 128.987 197.43 129.362 197.204C129.736 196.974 130.056 196.654 130.325 196.241C130.591 195.828 130.798 195.334 130.944 194.759C131.089 194.183 131.162 193.544 131.162 192.833C131.162 192.126 131.089 191.478 130.944 190.895C130.798 190.311 130.595 189.808 130.325 189.387C130.06 188.965 129.736 188.637 129.362 188.411C128.987 188.181 128.576 188.07 128.128 188.07C127.681 188.07 127.27 188.185 126.895 188.411C126.521 188.637 126.201 188.965 125.931 189.387C125.666 189.808 125.459 190.311 125.313 190.895C125.168 191.478 125.095 192.126 125.095 192.833C125.095 193.544 125.168 194.183 125.313 194.759C125.459 195.334 125.662 195.828 125.931 196.241C126.197 196.654 126.521 196.974 126.895 197.204C127.27 197.43 127.681 197.545 128.128 197.545Z" fill="#58595B"/>
<path d="M135.77 198.968V186.652H137.243L137.395 188.88H137.461C137.821 188.105 138.258 187.487 138.77 187.031C139.283 186.575 139.844 186.345 140.447 186.345C140.866 186.345 141.24 186.43 141.571 186.601L141.226 188.424C141.051 188.356 140.895 188.309 140.749 188.271C140.604 188.237 140.426 188.22 140.207 188.22C139.76 188.22 139.294 188.433 138.81 188.854C138.327 189.276 137.905 190.013 137.545 191.061V198.972H135.77V198.968Z" fill="#58595B"/>
<path d="M146.657 199.274C145.329 199.274 144.271 198.716 143.485 197.6C142.699 196.484 142.307 194.895 142.307 192.833C142.307 191.836 142.434 190.937 142.685 190.132C142.936 189.331 143.274 188.65 143.693 188.092C144.111 187.534 144.595 187.103 145.144 186.797C145.693 186.494 146.268 186.341 146.875 186.341C147.483 186.341 148.007 186.469 148.458 186.72C148.905 186.976 149.36 187.321 149.822 187.759L149.734 185.655V180.914H151.531V198.963H150.058L149.905 197.519H149.84C149.422 197.992 148.941 198.401 148.399 198.746C147.857 199.1 147.275 199.274 146.657 199.274ZM147.046 197.523C147.537 197.523 147.999 197.383 148.432 197.106C148.865 196.829 149.298 196.399 149.731 195.828V189.391C149.283 188.918 148.854 188.582 148.443 188.39C148.032 188.198 147.61 188.1 147.177 188.1C146.759 188.1 146.366 188.215 145.999 188.441C145.631 188.667 145.311 188.991 145.035 189.404C144.762 189.817 144.544 190.311 144.387 190.886C144.227 191.461 144.151 192.105 144.151 192.812C144.151 194.298 144.402 195.457 144.907 196.284C145.409 197.11 146.122 197.523 147.046 197.523Z" fill="#58595B"/>
<path d="M157.828 199.27C157.078 199.27 156.362 199.108 155.685 198.789C155.005 198.469 154.416 198.064 153.91 197.57L154.798 196.177C155.26 196.616 155.733 196.974 156.216 197.242C156.7 197.511 157.26 197.647 157.893 197.647C158.584 197.647 159.105 197.459 159.45 197.089C159.796 196.718 159.97 196.262 159.97 195.721C159.97 195.402 159.897 195.121 159.756 194.886C159.61 194.648 159.428 194.443 159.203 194.264C158.981 194.085 158.723 193.932 158.435 193.796C158.148 193.659 157.857 193.527 157.569 193.391C157.195 193.238 156.82 193.067 156.445 192.871C156.071 192.675 155.736 192.441 155.438 192.16C155.143 191.883 154.9 191.555 154.714 191.184C154.525 190.814 154.434 190.367 154.434 189.838C154.434 189.348 154.518 188.888 154.681 188.458C154.849 188.028 155.085 187.657 155.394 187.342C155.703 187.031 156.082 186.784 156.529 186.609C156.977 186.43 157.482 186.341 158.046 186.341C158.708 186.341 159.319 186.477 159.876 186.746C160.432 187.014 160.912 187.346 161.316 187.734L160.472 189.05C160.112 188.731 159.737 188.467 159.348 188.266C158.959 188.062 158.533 187.964 158.071 187.964C157.406 187.964 156.922 188.139 156.609 188.496C156.3 188.85 156.144 189.267 156.144 189.74C156.144 190.03 156.209 190.277 156.34 190.49C156.471 190.703 156.642 190.886 156.86 191.048C157.078 191.21 157.326 191.351 157.606 191.478C157.886 191.606 158.181 191.738 158.482 191.87C158.857 192.041 159.235 192.215 159.617 192.403C159.999 192.59 160.341 192.82 160.647 193.097C160.949 193.374 161.2 193.719 161.392 194.124C161.589 194.529 161.683 195.018 161.683 195.594C161.683 196.1 161.6 196.573 161.436 197.012C161.269 197.451 161.025 197.843 160.701 198.179C160.378 198.516 159.974 198.784 159.49 198.976C158.999 199.172 158.446 199.27 157.828 199.27Z" fill="#58595B"/>
<path d="M168.236 199.27C167.588 199.27 166.97 199.125 166.384 198.84C165.798 198.55 165.282 198.132 164.835 197.583C164.387 197.033 164.031 196.356 163.761 195.555C163.496 194.754 163.361 193.847 163.361 192.829C163.361 191.798 163.492 190.882 163.761 190.077C164.027 189.276 164.387 188.594 164.835 188.036C165.282 187.478 165.798 187.057 166.384 186.771C166.97 186.486 167.584 186.341 168.236 186.341C168.887 186.341 169.501 186.486 170.087 186.771C170.673 187.061 171.189 187.478 171.637 188.036C172.084 188.594 172.441 189.276 172.71 190.077C172.975 190.882 173.11 191.798 173.11 192.829C173.11 193.843 172.975 194.75 172.71 195.555C172.444 196.36 172.084 197.033 171.637 197.583C171.189 198.132 170.673 198.55 170.087 198.84C169.501 199.125 168.887 199.27 168.236 199.27ZM168.236 197.545C168.683 197.545 169.094 197.43 169.469 197.204C169.843 196.974 170.163 196.654 170.433 196.241C170.698 195.828 170.906 195.334 171.051 194.759C171.197 194.183 171.269 193.544 171.269 192.833C171.269 192.126 171.197 191.478 171.051 190.895C170.906 190.311 170.702 189.808 170.433 189.387C170.167 188.965 169.843 188.637 169.469 188.411C169.094 188.181 168.683 188.07 168.236 188.07C167.788 188.07 167.377 188.185 167.002 188.411C166.628 188.637 166.308 188.965 166.039 189.387C165.773 189.808 165.566 190.311 165.42 190.895C165.275 191.478 165.202 192.126 165.202 192.833C165.202 193.544 165.275 194.183 165.42 194.759C165.566 195.334 165.769 195.828 166.039 196.241C166.308 196.654 166.628 196.974 167.002 197.204C167.377 197.43 167.788 197.545 168.236 197.545Z" fill="#58595B"/>
<path d="M175.869 198.968V186.652H177.342L177.495 188.424H177.561C178.066 187.832 178.597 187.338 179.15 186.942C179.707 186.545 180.351 186.345 181.089 186.345C182.198 186.345 183.01 186.75 183.526 187.564C184.039 188.377 184.294 189.574 184.294 191.163V198.972H182.518V191.444C182.518 190.277 182.358 189.438 182.042 188.923C181.726 188.407 181.22 188.147 180.525 188.147C179.976 188.147 179.492 188.309 179.074 188.629C178.655 188.948 178.179 189.421 177.644 190.047V198.968H175.869Z" fill="#58595B"/>
<path d="M197.589 199.274C196.695 199.274 195.873 199.078 195.123 198.69C194.374 198.303 193.719 197.74 193.163 197.003C192.606 196.266 192.173 195.363 191.864 194.29C191.555 193.216 191.398 192.006 191.398 190.652C191.398 189.318 191.558 188.117 191.875 187.052C192.191 185.987 192.632 185.084 193.195 184.338C193.759 183.597 194.421 183.026 195.189 182.63C195.953 182.234 196.789 182.034 197.699 182.034C198.564 182.034 199.325 182.238 199.983 182.656C200.638 183.069 201.176 183.546 201.594 184.087L200.619 185.454C200.245 184.982 199.819 184.602 199.343 184.313C198.866 184.027 198.328 183.883 197.72 183.883C197.04 183.883 196.429 184.04 195.88 184.351C195.331 184.662 194.865 185.109 194.472 185.693C194.083 186.277 193.781 186.984 193.574 187.81C193.366 188.637 193.261 189.57 193.261 190.596C193.261 191.644 193.366 192.586 193.574 193.425C193.781 194.26 194.076 194.976 194.45 195.568C194.825 196.16 195.283 196.616 195.825 196.935C196.367 197.255 196.975 197.417 197.655 197.417C198.35 197.417 198.954 197.25 199.474 196.922C199.994 196.59 200.485 196.134 200.947 195.542L201.944 196.858C201.38 197.617 200.747 198.209 200.041 198.635C199.328 199.061 198.51 199.274 197.589 199.274Z" fill="#58595B"/>
<path d="M208.492 199.27C207.841 199.27 207.226 199.125 206.64 198.84C206.055 198.55 205.538 198.132 205.091 197.583C204.643 197.033 204.287 196.356 204.021 195.555C203.756 194.754 203.621 193.847 203.621 192.829C203.621 191.798 203.756 190.882 204.021 190.077C204.287 189.276 204.643 188.594 205.091 188.036C205.538 187.478 206.055 187.057 206.64 186.771C207.226 186.486 207.841 186.341 208.492 186.341C209.143 186.341 209.758 186.486 210.343 186.771C210.929 187.061 211.442 187.478 211.893 188.036C212.34 188.594 212.697 189.276 212.962 190.077C213.228 190.882 213.362 191.798 213.362 192.829C213.362 193.843 213.228 194.75 212.962 195.555C212.697 196.36 212.34 197.033 211.893 197.583C211.445 198.132 210.929 198.55 210.343 198.84C209.761 199.125 209.143 199.27 208.492 199.27ZM208.492 197.545C208.939 197.545 209.35 197.43 209.725 197.204C210.099 196.974 210.42 196.654 210.689 196.241C210.958 195.828 211.162 195.334 211.307 194.759C211.453 194.183 211.525 193.544 211.525 192.833C211.525 192.126 211.453 191.478 211.307 190.895C211.162 190.311 210.958 189.808 210.689 189.387C210.423 188.965 210.099 188.637 209.725 188.411C209.35 188.181 208.939 188.07 208.492 188.07C208.044 188.07 207.633 188.185 207.259 188.411C206.884 188.637 206.564 188.965 206.295 189.387C206.029 189.808 205.822 190.311 205.676 190.895C205.531 191.478 205.458 192.126 205.458 192.833C205.458 193.544 205.531 194.183 205.676 194.759C205.822 195.334 206.025 195.828 206.295 196.241C206.56 196.654 206.884 196.974 207.259 197.204C207.637 197.43 208.048 197.545 208.492 197.545Z" fill="#58595B"/>
<path d="M216.133 198.968V186.652H217.606L217.759 188.424H217.824C218.286 187.832 218.788 187.338 219.33 186.942C219.872 186.545 220.458 186.345 221.094 186.345C221.902 186.345 222.535 186.554 222.99 186.967C223.444 187.38 223.779 187.96 223.997 188.705C224.546 187.998 225.096 187.427 225.652 186.997C226.209 186.567 226.809 186.349 227.46 186.349C228.54 186.349 229.348 186.754 229.872 187.568C230.399 188.381 230.661 189.579 230.661 191.168V198.976H228.886V191.449C228.886 190.281 228.726 189.442 228.409 188.927C228.093 188.411 227.602 188.151 226.936 188.151C226.143 188.151 225.263 188.786 224.295 190.056V198.976H222.52V191.449C222.52 190.281 222.36 189.442 222.044 188.927C221.727 188.411 221.229 188.151 220.549 188.151C219.756 188.151 218.875 188.786 217.908 190.056V198.976H216.133V198.968Z" fill="#58595B"/>
<path d="M234.076 204.165V186.652H235.549L235.702 188.071H235.768C236.244 187.598 236.768 187.193 237.335 186.852C237.906 186.516 238.499 186.345 239.121 186.345C239.798 186.345 240.398 186.494 240.918 186.788C241.438 187.082 241.871 187.508 242.217 188.053C242.562 188.603 242.828 189.263 243.006 190.03C243.188 190.801 243.275 191.666 243.275 192.629C243.275 193.677 243.152 194.61 242.908 195.428C242.661 196.245 242.33 196.944 241.911 197.519C241.493 198.094 241.009 198.529 240.46 198.823C239.911 199.117 239.336 199.266 238.729 199.266C238.237 199.266 237.75 199.138 237.266 198.887C236.782 198.635 236.295 198.286 235.808 197.847L235.851 200.003V204.161H234.076V204.165ZM238.427 197.523C238.859 197.523 239.26 197.408 239.627 197.183C239.994 196.953 240.311 196.633 240.58 196.22C240.846 195.807 241.057 195.295 241.209 194.686C241.362 194.077 241.435 193.391 241.435 192.633C241.435 191.956 241.384 191.338 241.286 190.78C241.184 190.222 241.02 189.745 240.798 189.349C240.576 188.952 240.285 188.641 239.933 188.424C239.58 188.207 239.158 188.096 238.667 188.096C238.219 188.096 237.768 188.241 237.314 188.526C236.859 188.816 236.371 189.229 235.851 189.77V196.233C236.328 196.706 236.79 197.042 237.237 197.234C237.681 197.425 238.081 197.523 238.427 197.523Z" fill="#58595B"/>
<path d="M248.212 199.27C247.332 199.27 246.601 198.967 246.015 198.358C245.43 197.749 245.139 196.889 245.139 195.772C245.139 194.422 245.652 193.387 246.674 192.667C247.699 191.947 249.336 191.444 251.588 191.159C251.588 190.771 251.555 190.392 251.49 190.017C251.424 189.647 251.312 189.314 251.155 189.029C250.999 188.743 250.777 188.509 250.497 188.33C250.213 188.151 249.857 188.066 249.424 188.066C248.816 188.066 248.249 188.202 247.714 188.471C247.179 188.743 246.703 189.046 246.284 189.382L245.59 187.938C246.081 187.568 246.681 187.21 247.387 186.861C248.092 186.515 248.871 186.341 249.726 186.341C251.01 186.341 251.941 186.801 252.516 187.721C253.094 188.641 253.381 189.872 253.381 191.41V198.963H251.908L251.755 197.493H251.69C251.184 197.983 250.642 198.401 250.067 198.75C249.493 199.1 248.874 199.27 248.212 199.27ZM248.729 197.596C249.234 197.596 249.711 197.455 250.158 197.178C250.606 196.901 251.082 196.488 251.588 195.947V192.526C250.708 192.663 249.969 192.82 249.369 193.008C248.769 193.195 248.285 193.412 247.918 193.668C247.55 193.924 247.281 194.213 247.117 194.541C246.95 194.869 246.866 195.231 246.866 195.619C246.866 196.326 247.048 196.833 247.408 197.14C247.772 197.442 248.212 197.596 248.729 197.596Z" fill="#58595B"/>
<path d="M256.695 198.968V186.652H258.168L258.321 188.424H258.387C258.892 187.832 259.42 187.338 259.976 186.942C260.533 186.545 261.177 186.345 261.911 186.345C263.021 186.345 263.836 186.75 264.349 187.564C264.862 188.377 265.116 189.574 265.116 191.163V198.972H263.341V191.444C263.341 190.277 263.181 189.438 262.865 188.923C262.548 188.407 262.042 188.147 261.348 188.147C260.798 188.147 260.318 188.309 259.896 188.629C259.478 188.948 259.001 189.421 258.467 190.047V198.968H256.695Z" fill="#58595B"/>
<path d="M268.709 204.263C268.462 204.263 268.24 204.241 268.04 204.199C267.836 204.156 267.651 204.092 267.476 204.007L267.822 202.359C267.938 202.393 268.065 202.431 268.211 202.474C268.356 202.516 268.491 202.537 268.622 202.537C269.226 202.537 269.721 202.286 270.106 201.788C270.488 201.289 270.786 200.659 271.005 199.901L271.241 198.989L267.021 186.643H268.862L271.005 193.464C271.165 194.005 271.332 194.576 271.514 195.172C271.696 195.773 271.863 196.36 272.023 196.936H272.11C272.27 196.378 272.42 195.794 272.565 195.185C272.711 194.576 272.852 194 272.998 193.459L274.882 186.639H276.614L272.652 199.973C272.463 200.582 272.256 201.144 272.023 201.673C271.79 202.197 271.517 202.648 271.201 203.027C270.885 203.407 270.521 203.705 270.117 203.926C269.71 204.152 269.24 204.263 268.709 204.263Z" fill="#58595B"/>
</g>
<defs>
<clipPath id="clip0_6_664">
<rect width="291" height="213" fill="white"/>
</clipPath>
</defs>
</svg>
