<svg width="17" height="17" viewBox="0 0 17 17" fill="none" xmlns="http://www.w3.org/2000/svg">
<g clip-path="url(#clip0_20_1989)">
<path d="M8.71875 1.85742C12.3188 1.85742 15.2188 4.75742 15.2188 8.35742C15.2188 11.9574 12.3188 14.8574 8.71875 14.8574C5.11875 14.8574 2.21875 11.9574 2.21875 8.35742C2.21875 4.75742 5.11875 1.85742 8.71875 1.85742ZM8.71875 0.357422C4.31875 0.357422 0.71875 3.95742 0.71875 8.35742C0.71875 12.7574 4.31875 16.3574 8.71875 16.3574C13.1187 16.3574 16.7188 12.7574 16.7188 8.35742C16.7188 3.95742 13.1187 0.357422 8.71875 0.357422Z" fill="#F4F4F4"/>
<path d="M10.6187 10.6574C10.1187 11.0574 9.41875 11.3574 8.71875 11.3574C7.01875 11.3574 5.71875 10.0574 5.71875 8.35742C5.71875 6.65742 7.01875 5.35742 8.71875 5.35742C9.51875 5.35742 10.3188 5.65742 10.8188 6.25742L11.9187 5.15742C11.1187 4.35742 9.91875 3.85742 8.71875 3.85742C6.21875 3.85742 4.21875 5.85742 4.21875 8.35742C4.21875 10.8574 6.21875 12.8574 8.71875 12.8574C9.81875 12.8574 10.7188 12.4574 11.5188 11.8574L10.6187 10.6574Z" fill="#F4F4F4"/>
</g>
<defs>
<clipPath id="clip0_20_1989">
<rect width="16" height="16" fill="white" transform="translate(0.71875 0.357422)"/>
</clipPath>
</defs>
</svg>
