<svg width="17" height="17" viewBox="0 0 17 17" fill="none" xmlns="http://www.w3.org/2000/svg">
<g clip-path="url(#clip0_20_2019)">
<path d="M8.71875 1.76855C12.3188 1.76855 15.2188 4.66855 15.2188 8.26855C15.2188 11.8686 12.3188 14.7686 8.71875 14.7686C5.11875 14.7686 2.21875 11.8686 2.21875 8.26855C2.21875 4.66855 5.11875 1.76855 8.71875 1.76855ZM8.71875 0.268555C4.31875 0.268555 0.71875 3.86855 0.71875 8.26855C0.71875 12.6686 4.31875 16.2686 8.71875 16.2686C13.1187 16.2686 16.7188 12.6686 16.7188 8.26855C16.7188 3.86855 13.1187 0.268555 8.71875 0.268555Z" fill="#F4F4F4"/>
<path d="M10.6187 10.5686C10.1187 10.9686 9.41875 11.2686 8.71875 11.2686C7.01875 11.2686 5.71875 9.96855 5.71875 8.26855C5.71875 6.56855 7.01875 5.26855 8.71875 5.26855C9.51875 5.26855 10.3188 5.56855 10.8188 6.16855L11.9187 5.06855C11.1187 4.26855 9.91875 3.76855 8.71875 3.76855C6.21875 3.76855 4.21875 5.76855 4.21875 8.26855C4.21875 10.7686 6.21875 12.7686 8.71875 12.7686C9.81875 12.7686 10.7188 12.3686 11.5188 11.7686L10.6187 10.5686Z" fill="#F4F4F4"/>
</g>
<defs>
<clipPath id="clip0_20_2019">
<rect width="16" height="16" fill="white" transform="translate(0.71875 0.268555)"/>
</clipPath>
</defs>
</svg>
