<svg width="115" height="94" viewBox="0 0 115 94" fill="none" xmlns="http://www.w3.org/2000/svg">
<path d="M114.171 47.0002C114.171 48.5258 113.499 49.9295 112.279 51.0895L71.7515 91.6164C70.4697 92.7764 69.188 93.2645 67.7841 93.2645C64.7323 93.2645 62.413 91.0677 62.413 88.0158C62.413 86.612 62.9623 85.147 63.9392 84.1702L77.5498 70.2545L98.1796 51.5164L83.3481 52.4933H6.19984C3.02609 52.4933 0.828589 50.1739 0.828589 47.0002C0.828589 43.8264 3.02609 41.5677 6.19984 41.5677H83.3481L98.1186 42.4833L77.5498 23.7456L63.9392 9.89066C62.9011 8.85304 62.413 7.44923 62.413 5.98441C62.413 2.99366 64.7323 0.735352 67.7841 0.735352C69.188 0.735352 70.5307 1.28467 71.8735 2.56642L112.279 42.9108C113.499 44.1314 114.171 45.5352 114.171 47.0002Z" fill="white"/>
</svg>
